{"title":"Traci Lords - The Grafenberg Spot (1985) Uncut  English Version","uid":8418872,"size":210137088,"categoryP":"porn","categoryS":"movies","magnet":"?xt=urn:btih:6b7a7261b5e242841e556587ae7f8c498c85f694&amp;dn=Traci+Lords+-+The+Grafenberg+Spot+%281985%29+Uncut++English+Version&amp;tr=udp%3A%2F%2Ftracker.openbittorrent.com%3A80&amp;tr=udp%3A%2F%2Fopen.demonii.com%3A1337&amp;tr=udp%3A%2F%2Ftracker.coppersurfer.tk%3A6969&amp;tr=udp%3A%2F%2Fexodus.desync.com%3A6969","seeders":1,"leechers":0,"uploader":"emahevul","files":1,"time":1367123020,"description":"Format                                   : AVI\nFormat/Info                              : Audio Video Interleave\nFile size                                : 200 MiB\nDuration                                 : 1h 18mn\nOverall bit rate                         : 358 Kbps\nWriting library                          : VirtualDub build 11759/release\n\nVideo\nID                                       : 0\nFormat                                   : MPEG-4 Visual\nCodec ID                                 : DIV3\nCodec ID/Hint                            : DivX 3 Low\nDuration                                 : 1h 18mn\nBit rate                                 : 300 Kbps\nWidth                                    : 352 pixels\nHeight                                   : 288 pixels\nDisplay aspect ratio                     : 1.222\nFrame rate                               : 25.000 fps\nStandard                                 : PAL\nColor space                              : YUV\nChroma subsampling                       : 4:2:0\nBit depth                                : 8 bits\nCompression mode                         : Lossy\nBits/(Pixel*Frame)                       : 0.118\nStream size                              : 168 MiB (84%)\n\nAudio\nID                                       : 1\nFormat                                   : MPEG Audio\nFormat version                           : Version 2\nFormat profile                           : Layer 3\nMode                                     : Joint stereo\nMode extension                           : Intensity Stereo + MS Stereo\nCodec ID                                 : 55\nCodec ID/Hint                            : MP3\nDuration                                 : 1h 18mn\nBit rate mode                            : Constant\nBit rate                                 : 48.0 Kbps\nChannel(s)                               : 2 channels\nSampling rate                            : 22.05 KHz\nCompression mode                         : Lossy\nStream size                              : 26.8 MiB (13%)\nAlignment                                : Split accross interleaves\nInterleave, duration                     : 40 ms (1.00 video frame)\nInterleave, preload duration             : 476 ms\n\nStoryline\n\nA young couple seeks therapy from a professional sex therapist whom explains the ways of the so-called female G-spot and the ways to turn a woman on.\n\n\n\nPlease note this is only of vhs quality don't expect it to be good\n\n\n\nRUNTIME 1 HOUR 18 Minutes 22 Seconds Uncut","torrent":{"xt":"urn:btih:6b7a7261b5e242841e556587ae7f8c498c85f694","amp;dn":"Traci+Lords+-+The+Grafenberg+Spot+%281985%29+Uncut++English+Version","amp;tr":["udp%3A%2F%2Ftracker.openbittorrent.com%3A80","udp%3A%2F%2Fopen.demonii.com%3A1337","udp%3A%2F%2Ftracker.coppersurfer.tk%3A6969","udp%3A%2F%2Fexodus.desync.com%3A6969"],"infoHash":"6b7a7261b5e242841e556587ae7f8c498c85f694","infoHashBuffer":{"type":"Buffer","data":[107,122,114,97,181,226,66,132,30,85,101,135,174,127,140,73,140,133,246,148]},"announce":[],"urlList":[]}}